<?xml version="1.0" encoding="utf-8"?>
<!-- Generator: Adobe Illustrator 13.0.1, SVG Export Plug-In . SVG Version: 6.00 Build 14948)  -->
<!DOCTYPE svg PUBLIC "-//W3C//DTD SVG 1.1//EN" "http://www.w3.org/Graphics/SVG/1.1/DTD/svg11.dtd">
<svg version="1.1" id="Livello_1" xmlns="http://www.w3.org/2000/svg" xmlns:xlink="http://www.w3.org/1999/xlink" x="0px" y="0px"
	 width="618px" height="600px" viewBox="0 0 618 600" enable-background="new 0 0 618 600" xml:space="preserve">
<title>Five-petal flower icon.</title>
<g transform="translate(309,317.360385) scale(0.303,-0.303)">
	<path d="M-427.422,588.293c-6.462,236.061,179.662,432.662,415.719,439.125c236.057,6.462,432.662-179.662,439.124-415.719
		c0.213-7.8,0.213-15.602,0-23.405c222.502,79.105,467.003-37.142,546.108-259.646c79.105-222.505-37.145-467.003-259.65-546.108
		c-7.365-2.62-14.8-5.034-22.3-7.245c143.983-187.174,108.969-455.629-78.206-599.613S157.745-933.288,13.762-746.114
		c-4.76,6.188-9.35,12.505-13.762,18.941c-133.522-194.774-399.657-244.431-594.433-110.909
		c-194.774,133.522-244.431,399.656-110.911,594.43c4.414,6.44,9.003,12.757,13.764,18.945
		c-226.506,66.787-355.983,304.549-289.195,531.053s304.549,355.981,531.053,289.195
		C-442.223,593.33-434.786,590.913-427.422,588.293z"/>
	<path fill="#FFFFFF" d="M349.284,551.238C376.218,744.14,241.675,922.354,48.77,949.289
		c-192.903,26.935-371.118-107.609-398.052-300.514c-21.128-151.319,57.585-299.034,194.971-365.889
		c96.185,52.467,212.438,52.467,308.624,0C180.545,394.93,250.831,491.668,349.284,551.238z M-416.323,502.529
		C-591.462,587.758-802.53,514.87-887.757,339.73s-12.339-386.206,162.799-471.435c137.386-66.854,302.195-37.641,408.231,72.362
		c-20.177,107.689,15.747,218.257,95.37,293.52C-319.808,293.748-390.092,390.489-416.323,502.529z M-606.586-240.657
		c-135.177-140.229-131.079-363.491,9.153-498.666c140.23-135.178,363.492-131.078,498.667,9.153
		c106.036,110,129.18,275.771,57.329,410.607c-108.655,14.088-202.706,82.421-249.683,181.405
		C-378.197-213.381-491.922-250.333-606.586-240.657z M41.431-651.265c91.597-171.891,305.197-236.986,477.091-145.392
		C690.417-705.06,755.511-491.46,663.914-319.566c-71.85,134.836-222.353,208.076-372.796,181.409
		c-46.975-98.984-141.028-167.318-249.684-181.405C86.07-425.624,86.066-545.2,41.431-651.265z M632.194-161.846
		c191.783,33.993,319.7,217.026,285.704,408.809c-33.993,191.786-217.026,319.7-408.809,285.707
		c-150.442-26.667-266.605-147.174-287.731-298.493c79.624-75.263,115.547-185.83,95.368-293.52
		C431.392-49.67,545.115-86.622,632.194-161.846z M247.328-0.001c0,136.596-110.732,247.331-247.328,247.331
		S-247.328,136.595-247.328-0.001S-136.596-247.329,0-247.329S247.328-136.597,247.328-0.001z"/>
</g>
</svg>
